<?xml version="1.0" encoding="UTF-8"?>
<svg width="517px" height="764px" viewBox="0 0 517 764" version="1.1" xmlns="http://www.w3.org/2000/svg" xmlns:xlink="http://www.w3.org/1999/xlink">
    <!-- Generator: Sketch 53.1 (72631) - https://sketchapp.com -->
    <title>分组 2@2x</title>
    <desc>Created with Sketch.</desc>
    <g id="名片/LOGO" stroke="none" stroke-width="1" fill="none" fill-rule="evenodd">
        <g id="画板" transform="translate(-1735.000000, -791.000000)">
            <g id="分组-2" transform="translate(1735.000000, 791.000000)">
                <g id="分组" transform="translate(40.411924, 622.281307)" fill="#FFFFFF">
                    <path d="M424.494949,120.857143 L442.181564,120.857143 L442.181564,141 L424.494949,141 L403.166667,141 L403.166667,66.8742857 L387.222222,66.8742857 L387.222222,45.9257143 L403.166667,45.9257143 L403.166667,14.7042857 L424.494949,2.61857143 L424.494949,45.9257143 L451,45.9257143 L451,66.8742857 L424.494949,66.8742857 L424.494949,120.857143 Z M24.8484848,45.9257143 L24.8484848,141 L3.31313131,141 L3.31313131,45.9257143 L24.8484848,45.9257143 Z M24.020202,12.69 C26.7811586,15.2414413 28.1616162,18.363553 28.1616162,22.0564286 C28.1616162,25.7493042 26.7811586,28.9049869 24.020202,31.5235714 C21.2592455,34.142156 17.9461473,35.4514286 14.0808081,35.4514286 C10.2154689,35.4514286 6.90237071,34.142156 4.14141414,31.5235714 C1.38045758,28.9049869 0,25.7493042 0,22.0564286 C0,18.363553 1.38045758,15.2078702 4.14141414,12.5892857 C6.90237071,9.97070119 10.2154689,8.66142857 14.0808081,8.66142857 C17.9461473,8.66142857 21.2592455,10.0042723 24.020202,12.69 Z M70.1969697,83.9957143 L70.4040404,83.9957143 L70.4040404,141 L48.8686869,141 L48.8686869,45.9257143 L70.4040404,45.9257143 L70.4040404,52.9757143 C72.6128057,50.2899866 75.8223695,48.0407234 80.0328283,46.2278571 C84.243287,44.4149909 88.1430797,43.5085714 91.7323232,43.5085714 C102.914197,43.5085714 112.232286,47.6713869 119.686869,55.9971429 C127.141451,47.6713869 137.218792,43.5085714 149.919192,43.5085714 C161.239114,43.5085714 170.867805,47.4028182 178.805556,55.1914286 C186.743306,62.9800389 190.712121,72.5813715 190.712121,83.9957143 L190.712121,141 L169.176768,141 L169.176768,83.9957143 C169.176768,81.1757002 168.659096,78.4900128 167.623737,75.9385714 C166.588379,73.3871301 165.207921,71.171438 163.482323,69.2914286 C161.756725,67.4114192 159.72055,65.90072 157.373737,64.7592857 C155.026924,63.6178514 152.542101,63.0471429 149.919192,63.0471429 C144.535327,63.0471429 139.945305,65.0949795 136.14899,69.1907143 C132.352675,73.286449 130.454545,78.2213997 130.454545,83.9957143 L130.454545,141 L108.919192,141 L108.919192,83.9957143 C108.919192,81.1757002 108.436032,78.4900128 107.469697,75.9385714 C106.503362,73.3871301 105.157416,71.171438 103.431818,69.2914286 C101.70622,67.4114192 99.635534,65.90072 97.219697,64.7592857 C94.80386,63.6178514 92.2845249,63.0471429 89.6616162,63.0471429 C87.0387074,63.0471429 84.5193723,63.6178514 82.1035354,64.7592857 C79.6876984,65.90072 77.617012,67.4114192 75.8914141,69.2914286 C74.1658163,71.171438 72.7853587,73.3871301 71.75,75.9385714 C70.7146413,78.4900128 70.1969697,81.1757002 70.1969697,83.9957143 Z M285.550505,139.388571 C281.685166,140.328576 278.164999,140.798571 274.989899,140.798571 L211.419192,140.798571 L211.419192,0 L266.292929,0 C269.744125,0 273.402338,0.4699953 277.267677,1.41 C286.516881,3.82715494 294.074886,8.59425013 299.941919,15.7114286 C305.808952,22.828607 308.742424,31.0199537 308.742424,40.2857143 C308.742424,50.2229068 305.153235,59.0185332 297.974747,66.6728571 C304.048852,70.2985896 308.845942,75.0992558 312.366162,81.075 C315.886381,87.0507442 317.646465,93.5299651 317.646465,100.512857 C317.646465,109.778618 314.609458,118.003536 308.535354,125.187857 C302.461249,132.372179 294.79971,137.105703 285.550505,139.388571 Z M232.954545,20.3442857 L232.954545,60.2271429 L266.292929,60.2271429 C269.191934,60.2271429 271.918337,59.6900054 274.472222,58.6157143 C277.026107,57.5414232 279.234839,56.0978662 281.098485,54.285 C282.962131,52.4721338 284.480634,50.3571549 285.65404,47.94 C286.827447,45.5228451 287.414141,42.971442 287.414141,40.2857143 C287.414141,34.7799725 285.343455,30.0800195 281.20202,26.1857143 C277.060585,22.2914091 272.090938,20.3442857 266.292929,20.3442857 L232.954545,20.3442857 Z M232.954545,80.5714286 L232.954545,120.454286 L274.989899,120.454286 C280.787908,120.454286 285.757555,118.507162 289.89899,114.612857 C294.040425,110.718552 296.111111,106.018599 296.111111,100.512857 C296.111111,95.0071153 294.040425,90.3071623 289.89899,86.4128571 C285.757555,82.518552 280.787908,80.5714286 274.989899,80.5714286 L232.954545,80.5714286 Z M363.20202,45.9257143 L363.20202,141 L341.666667,141 L341.666667,45.9257143 L363.20202,45.9257143 Z M362.373737,12.69 C365.134694,15.2414413 366.515152,18.363553 366.515152,22.0564286 C366.515152,25.7493042 365.134694,28.9049869 362.373737,31.5235714 C359.612781,34.142156 356.299683,35.4514286 352.434343,35.4514286 C348.569004,35.4514286 345.255906,34.142156 342.494949,31.5235714 C339.733993,28.9049869 338.353535,25.7493042 338.353535,22.0564286 C338.353535,18.363553 339.733993,15.2078702 342.494949,12.5892857 C345.255906,9.97070119 348.569004,8.66142857 352.434343,8.66142857 C356.299683,8.66142857 359.612781,10.0042723 362.373737,12.69 Z" id="合并形状"></path>
                </g>
                <g id="Android_logo_1024" fill-rule="nonzero">
                    <rect id="矩形" fill="#308EFF" x="0" y="0" width="517" height="516.332123" rx="138.759924"></rect>
                    <path d="M317.08099,192.491567 C315.101687,172.140083 302.790326,154.050207 284.248727,144.859015 C272.501887,139.016932 260.203215,137.584346 248.408306,140.096127 L245.144499,115.902298 C261.847332,113.359566 279.252973,115.914132 294.939252,123.789954 C301.672893,127.197161 307.920602,131.369253 313.474121,136.375762 C329.608845,150.762804 339.457328,170.811127 340.969487,192.2031 C347.478133,196.165169 351.825054,203.32964 351.825054,211.51 C351.825054,223.982124 341.720487,234.092778 329.255872,234.092778 C316.791257,234.092778 306.686689,223.982124 306.686689,211.51 C306.686689,203.524442 310.829046,196.506965 317.080986,192.491569 Z M186.896413,314.001068 C174.431798,314.001068 164.327231,303.890414 164.327231,291.418291 C164.327231,278.946167 174.431798,268.835513 186.896413,268.835513 C199.361029,268.835513 209.465596,278.946167 209.465596,291.418291 C209.465596,303.890414 199.361029,314.001068 186.896413,314.001068 Z M277.749677,373.835233 L284.059241,396.799299 C275.675793,399.591261 266.865591,401.054679 257.938931,401.094956 C211.914144,401.025421 174.636148,363.685204 174.566729,317.65313 L174.566729,285.890597 C174.566729,279.31545 179.896938,273.985241 186.472085,273.985241 C193.047231,273.985241 198.377441,279.31545 198.377441,285.890597 L198.377441,317.65313 C198.377441,350.612651 225.034332,377.174966 257.869513,377.314036 C264.670057,377.314036 271.390541,376.137861 277.749677,373.835233 Z M198.238603,198.539923 C198.238603,186.510393 201.848391,174.759002 208.72087,164.815518 L189.144716,151.325756 C179.564896,165.163193 174.427891,181.712488 174.427891,198.539923 L174.427891,239.063847 C174.427891,245.638994 179.7581,250.969204 186.333247,250.969204 L186.333247,250.969204 C192.908394,250.969204 198.238603,245.638994 198.238603,239.063847 L198.238603,198.539923 Z M317.500422,317.722665 C317.500422,324.328476 312.15516,329.68266 305.560357,329.68266 C298.965553,329.68266 293.620291,324.328476 293.620291,317.722665 L293.620291,198.539923 C293.620291,178.792024 277.584505,162.799007 257.869513,162.799007 C238.154521,162.799008 222.118735,178.792024 222.118734,198.539923 L222.118734,305.852134 C222.118734,312.44645 227.464484,317.7922 234.0588,317.7922 L234.0588,317.7922 C240.653116,317.7922 245.998866,312.44645 245.998866,305.852134 L245.998866,198.539923 C245.998866,191.934112 251.344128,186.579927 257.938931,186.579928 C264.533735,186.579928 269.878997,191.934112 269.878997,198.539923 L269.878997,317.7922 C269.878997,337.540099 285.914783,353.533116 305.629775,353.533115 C325.344767,353.533115 341.380553,337.540099 341.380554,317.7922 L341.380554,265.61866 C341.380554,259.024344 336.034804,253.678594 329.440488,253.678594 L329.440488,253.678594 C322.846171,253.678594 317.500422,259.024344 317.500422,265.61866 L317.500422,317.722665 Z M395.946341,196.368106 C395.946341,121.273681 334.107804,60.4486388 257.869512,60.4486388 C181.631221,60.4486388 119.792683,121.273682 119.792683,196.368106 L119.792683,319.964017 C119.792683,395.058442 181.631221,455.883485 257.869512,455.883485 C334.107804,455.883485 395.946341,395.058442 395.946341,319.964017 L395.946341,196.368106 Z M372.135631,320.203874 C372.135631,381.914305 320.989348,431.963493 257.869514,431.963493 C194.823589,431.963493 143.603395,381.914305 143.603395,320.203874 L143.603395,196.058712 C143.603395,134.348281 194.749678,84.2990939 257.869514,84.2990943 C320.915438,84.2990943 372.135632,134.348282 372.135631,196.058712 L372.135631,320.203874 Z M196.180685,182.048211 C207.686484,182.048211 217.013776,172.7153 217.013776,161.20257 C217.013776,149.68984 207.686484,140.356929 196.180685,140.356929 C184.674886,140.356929 175.347594,149.68984 175.347594,161.20257 C175.347594,172.7153 184.674886,182.048211 196.180685,182.048211 Z M280.645325,397.383632 C273.933609,397.383632 268.492688,391.939434 268.492688,385.223675 C268.492688,378.507916 273.933609,373.063718 280.645325,373.063718 C287.357041,373.063718 292.797962,378.507916 292.797962,385.223675 C292.797962,391.939434 287.357041,397.383632 280.645325,397.383632 Z M245.923506,140.287394 C239.21179,140.287394 233.770869,134.843196 233.770869,128.127437 C233.770869,121.411678 239.21179,115.96748 245.923506,115.96748 C252.635222,115.96748 258.076143,121.411678 258.076143,128.127437 C258.076143,134.843196 252.635222,140.287394 245.923506,140.287394 Z" id="形状" fill="#FFFFFF"></path>
                </g>
            </g>
        </g>
    </g>
</svg>